<?xml version="1.0" encoding="UTF-8"?>
<svg width="16px" height="16px" viewBox="0 0 16 16" version="1.1" xmlns="http://www.w3.org/2000/svg" xmlns:xlink="http://www.w3.org/1999/xlink">
    <!-- Generator: Sketch 52.6 (67491) - http://www.bohemiancoding.com/sketch -->
    <title>tbb-addresses-icon</title>
    <desc>Created with Sketch.</desc>
    <defs>
        <path d="M6,0 L4,2.05263158 L4,3.42036842 L0,3.42036842 L0,13 L12,13 L12,6.15789474 L8,6.15789474 L8,2.05263158 L6,0 Z M5.33333333,3.42105263 L6.66666667,3.42105263 L6.66666667,2.05263158 L5.33333333,2.05263158 L5.33333333,3.42105263 Z M5.33333333,6.15789474 L6.66666667,6.15789474 L6.66666667,4.78947368 L5.33333333,4.78947368 L5.33333333,6.15789474 Z M1.33333333,6.15789474 L2.66666667,6.15789474 L2.66666667,4.78947368 L1.33333333,4.78947368 L1.33333333,6.15789474 Z M9.33333333,8.89473684 L10.6666667,8.89473684 L10.6666667,7.52631579 L9.33333333,7.52631579 L9.33333333,8.89473684 Z M5.33333333,8.89473684 L6.66666667,8.89473684 L6.66666667,7.52631579 L5.33333333,7.52631579 L5.33333333,8.89473684 Z M1.33333333,8.89473684 L2.66666667,8.89473684 L2.66666667,7.52631579 L1.33333333,7.52631579 L1.33333333,8.89473684 Z M9.33333333,11.6315789 L10.6666667,11.6315789 L10.6666667,10.2631579 L9.33333333,10.2631579 L9.33333333,11.6315789 Z M5.33333333,11.6315789 L6.66666667,11.6315789 L6.66666667,10.2631579 L5.33333333,10.2631579 L5.33333333,11.6315789 Z M1.33333333,11.6315789 L2.66666667,11.6315789 L2.66666667,10.2631579 L1.33333333,10.2631579 L1.33333333,11.6315789 Z" id="path-1"></path>
    </defs>
    <g id="tbb-addresses-icon" stroke="none" stroke-width="1" fill="none" fill-rule="evenodd">
        <g id="city" transform="translate(2.000000, 2.000000)">
            <mask id="mask-2" fill="white">
                <use xlink:href="#path-1"></use>
            </mask>
            <g id="path-1"></g>
            <g id="variables/color/action/primary" mask="url(#mask-2)">
                <g transform="translate(-3.000000, -3.000000)" id="↳-Color:">
                    <g>
                        <rect id="Rectangle" fill="#343534" x="0" y="0" width="17" height="18"></rect>
                    </g>
                </g>
            </g>
        </g>
    </g>
</svg>