<svg xmlns="http://www.w3.org/2000/svg" xmlns:xlink="http://www.w3.org/1999/xlink" viewBox="0 0 82 8">
  <defs>
    <clipPath id="clip-path">
      <path id="assets_logos_beautybox_regular" data-name="assets/logos/beautybox/regular" d="M31.467,8c-1.914,0-2.926-1.141-2.926-3.3V.232h1.574v4.36c0,1.12.461,1.687,1.372,1.687s1.372-.55,1.372-1.634V.232h1.574V4.647C34.432,6.841,33.407,8,31.467,8ZM69.39,8a3.38,3.38,0,0,1-2.532-1.172A4.221,4.221,0,0,1,65.809,4a4.221,4.221,0,0,1,1.049-2.828,3.322,3.322,0,0,1,5.064,0A4.221,4.221,0,0,1,72.971,4a4.221,4.221,0,0,1-1.049,2.828A3.38,3.38,0,0,1,69.39,8Zm0-6.229A2.109,2.109,0,0,0,67.432,4a1.974,1.974,0,1,0,3.915,0A2.109,2.109,0,0,0,69.39,1.771Zm-49.755,6H18.309V6.462L20.877.177H22.43l2.633,6.285V7.767H23.737l-.548-1.5H20.183l-.548,1.5Zm1.948-5.309-.826,2.252h1.859l-.826-2.252ZM42.019,7.768H40.295V1.859h-2.2V.232h6.132V1.859h-2.2V7.767Zm-27.355,0H9.506V.232h5.158V1.8h-3.61V3.236h2.136V4.711H11.054V6.2h3.61V7.767Zm61.951,0H75.339V6.353L77.419,4l-2.08-2.353V.313h1.322l2.009,2.272L80.678.313H82V1.647L79.92,4,82,6.353V7.767H80.724L78.669,5.414,76.615,7.767Zm-15.316,0H57.423V.232h3.282a2.206,2.206,0,0,1,1.6.6,1.91,1.91,0,0,1,.431.662,2.258,2.258,0,0,1,.149.826,1.911,1.911,0,0,1-.153.793,1.61,1.61,0,0,1-.668.72,1.66,1.66,0,0,1,.762.639,2.235,2.235,0,0,1,.327,1.234V5.8a1.89,1.89,0,0,1-.671,1.523A1.953,1.953,0,0,1,61.3,7.767Zm-2.28-3.193V6.307h1.654c.61,0,.907-.279.907-.852V5.414a.89.89,0,0,0-.174-.547.893.893,0,0,0-.738-.293Zm0-2.849V3.251h1.718c.449,0,.608-.4.608-.739V2.482c0-.678-.548-.756-.961-.756ZM51.663,7.767H49.981V4.336L47.787,1.589V.232h1.2l1.857,2.3L52.7.232h1.2V1.589L51.706,4.336V7.767h-.044Zm-47.787,0H0V.232H3.282a2.206,2.206,0,0,1,1.6.6,1.908,1.908,0,0,1,.431.662,2.257,2.257,0,0,1,.149.826,1.914,1.914,0,0,1-.153.793,1.61,1.61,0,0,1-.668.72,1.659,1.659,0,0,1,.762.639,2.238,2.238,0,0,1,.327,1.234V5.8A1.889,1.889,0,0,1,5.06,7.321,1.952,1.952,0,0,1,3.876,7.767ZM1.6,4.574V6.307H3.249c.61,0,.907-.279.907-.852V5.414a.89.89,0,0,0-.174-.547.893.893,0,0,0-.738-.293Zm0-2.849V3.251H3.313c.449,0,.608-.4.608-.739V2.482c0-.678-.548-.756-.961-.756Z" transform="translate(0 0)" fill="none"/>
    </clipPath>
    <clipPath id="clip-path-2">
      <rect width="82.698" height="9.053" fill="none"/>
    </clipPath>
  </defs>
  <g transform="translate(0)" clip-path="url(#clip-path)">
    <g id="variables_color_action_primary" data-name="variables/color/action/primary" transform="translate(-0.333 -0.566)" clip-path="url(#clip-path-2)">
      <rect id="_Color:" data-name="↳ Color:" width="91.003" height="91.003" fill="#98c7bc"/>
    </g>
  </g>
</svg>
