<?xml version="1.0" encoding="UTF-8"?>
<svg width="16px" height="16px" viewBox="0 0 16 16" version="1.1" xmlns="http://www.w3.org/2000/svg" xmlns:xlink="http://www.w3.org/1999/xlink">
    <!-- Generator: Sketch 52.6 (67491) - http://www.bohemiancoding.com/sketch -->
    <title>tbb-conta-icon</title>
    <desc>Created with Sketch.</desc>
    <defs>
        <path d="M8,1.33333333 C4.32,1.33333333 1.33333333,4.32 1.33333333,8 C1.33333333,11.68 4.32,14.6666667 8,14.6666667 C11.68,14.6666667 14.6666667,11.68 14.6666667,8 C14.6666667,4.32 11.68,1.33333333 8,1.33333333 Z M4.71333333,12.1866667 C5,11.5866667 6.74666667,11 8,11 C9.25333333,11 11.0066667,11.5866667 11.2866667,12.1866667 C10.38,12.9066667 9.24,13.3333333 8,13.3333333 C6.76,13.3333333 5.62,12.9066667 4.71333333,12.1866667 Z M12.24,11.22 C11.2866667,10.06 8.97333333,9.66666667 8,9.66666667 C7.02666667,9.66666667 4.71333333,10.06 3.76,11.22 C3.08,10.3266667 2.66666667,9.21333333 2.66666667,8 C2.66666667,5.06 5.06,2.66666667 8,2.66666667 C10.94,2.66666667 13.3333333,5.06 13.3333333,8 C13.3333333,9.21333333 12.92,10.3266667 12.24,11.22 Z M8,4 C6.70666667,4 5.66666667,5.04 5.66666667,6.33333333 C5.66666667,7.62666667 6.70666667,8.66666667 8,8.66666667 C9.29333333,8.66666667 10.3333333,7.62666667 10.3333333,6.33333333 C10.3333333,5.04 9.29333333,4 8,4 Z M8,7.33333333 C7.44666667,7.33333333 7,6.88666667 7,6.33333333 C7,5.78 7.44666667,5.33333333 8,5.33333333 C8.55333333,5.33333333 9,5.78 9,6.33333333 C9,6.88666667 8.55333333,7.33333333 8,7.33333333 Z" id="path-1"></path>
    </defs>
    <g id="tbb-conta-icon" stroke="none" stroke-width="1" fill="none" fill-rule="evenodd">
        <g id="assets/icons/account_circle">
            <mask id="mask-2" fill="white">
                <use xlink:href="#path-1"></use>
            </mask>
            <use id="Shape" fill="#000000" fill-rule="nonzero" xlink:href="#path-1"></use>
            <g id="variables/color/base/inverted-2" mask="url(#mask-2)" fill="#3F303D" fill-rule="evenodd">
                <g transform="translate(-0.666667, -0.666667)" id="↳-Color:">
                    <rect x="0" y="0" width="17" height="17"></rect>
                </g>
            </g>
        </g>
    </g>
</svg>