<svg xmlns="http://www.w3.org/2000/svg" xmlns:xlink="http://www.w3.org/1999/xlink" width="32" height="32" viewBox="0 0 32 32">
  <defs>
    <clipPath id="clip-path">
      <path id="Fill_1" data-name="Fill 1" d="M9.533,32A9.556,9.556,0,0,1,0,22.469V9.536A9.558,9.558,0,0,1,9.531,0H22.467A9.558,9.558,0,0,1,32,9.531V22.467A9.556,9.556,0,0,1,22.469,32ZM3.218,9.531V22.467a6.323,6.323,0,0,0,6.313,6.314H22.467a6.321,6.321,0,0,0,6.314-6.314V9.536a6.325,6.325,0,0,0-6.313-6.317H9.533A6.323,6.323,0,0,0,3.218,9.531ZM7.726,16A8.277,8.277,0,1,1,16,24.279,8.3,8.3,0,0,1,7.726,16Zm3.216,0A5.057,5.057,0,1,0,16,10.944,5.061,5.061,0,0,0,10.941,16ZM22.31,7.788A1.981,1.981,0,1,1,24.293,9.77,1.982,1.982,0,0,1,22.31,7.788Z" fill="none"/>
    </clipPath>
    <clipPath id="clip-path-2">
      <rect width="41.6" height="41.6" fill="none"/>
    </clipPath>
  </defs>
  <g clip-path="url(#clip-path)">
    <g id="_Color:" data-name="↳ Color:" transform="translate(-4.8 -4.8)" clip-path="url(#clip-path-2)">
      <rect id="_Color:-2" data-name="↳ Color:" width="41.6" height="41.6" fill="#98c7bc"/>
    </g>
  </g>
</svg>
