<svg xmlns="http://www.w3.org/2000/svg" xmlns:xlink="http://www.w3.org/1999/xlink" width="32" height="32" viewBox="0 0 32 32">
  <defs>
    <clipPath id="clip-path">
      <rect width="32" height="32" fill="none"/>
    </clipPath>
    <clipPath id="clip-path-2">
      <path id="Fill_3" data-name="Fill 3" d="M25.6,32H6.4A6.407,6.407,0,0,1,0,25.6V6.4A6.407,6.407,0,0,1,6.4,0H25.6A6.407,6.407,0,0,1,32,6.4V25.6A6.407,6.407,0,0,1,25.6,32ZM6.4,3.2A3.2,3.2,0,0,0,3.2,6.4V25.6a3.2,3.2,0,0,0,3.2,3.2H25.6a3.2,3.2,0,0,0,3.2-3.2V6.4a3.2,3.2,0,0,0-3.2-3.2Zm6.609,19.2A9.325,9.325,0,0,1,8,20.945a6.72,6.72,0,0,0,.782.045H8.8a6.673,6.673,0,0,0,4.057-1.382,3.281,3.281,0,0,1-3.066-2.244,3.372,3.372,0,0,0,1.483-.055,3.258,3.258,0,0,1-2.634-3.168V14.1a3.342,3.342,0,0,0,1.489.4,3.212,3.212,0,0,1-1.462-2.69,3.171,3.171,0,0,1,.445-1.623,9.391,9.391,0,0,0,6.765,3.375,3.189,3.189,0,0,1-.085-.736A3.261,3.261,0,0,1,19.077,9.6h.01a3.315,3.315,0,0,1,2.384,1.021,6.637,6.637,0,0,0,2.087-.783,3.252,3.252,0,0,1-1.443,1.787A6.663,6.663,0,0,0,24,11.115a6.5,6.5,0,0,1-1.642,1.669l.01.419a9.431,9.431,0,0,1-2.405,6.2,9,9,0,0,1-6.933,3Z" transform="translate(0 0)" fill="none"/>
    </clipPath>
    <clipPath id="clip-path-3">
      <rect width="41.6" height="41.6" fill="none"/>
    </clipPath>
  </defs>
  <g id="twt" clip-path="url(#clip-path)">
    <path id="Fill_3-2" data-name="Fill 3" d="M25.6,32H6.4A6.407,6.407,0,0,1,0,25.6V6.4A6.407,6.407,0,0,1,6.4,0H25.6A6.407,6.407,0,0,1,32,6.4V25.6A6.407,6.407,0,0,1,25.6,32ZM6.4,3.2A3.2,3.2,0,0,0,3.2,6.4V25.6a3.2,3.2,0,0,0,3.2,3.2H25.6a3.2,3.2,0,0,0,3.2-3.2V6.4a3.2,3.2,0,0,0-3.2-3.2Zm6.609,19.2A9.325,9.325,0,0,1,8,20.945a6.72,6.72,0,0,0,.782.045H8.8a6.673,6.673,0,0,0,4.057-1.382,3.281,3.281,0,0,1-3.066-2.244,3.372,3.372,0,0,0,1.483-.055,3.258,3.258,0,0,1-2.634-3.168V14.1a3.342,3.342,0,0,0,1.489.4,3.212,3.212,0,0,1-1.462-2.69,3.171,3.171,0,0,1,.445-1.623,9.391,9.391,0,0,0,6.765,3.375,3.189,3.189,0,0,1-.085-.736A3.261,3.261,0,0,1,19.077,9.6h.01a3.315,3.315,0,0,1,2.384,1.021,6.637,6.637,0,0,0,2.087-.783,3.252,3.252,0,0,1-1.443,1.787A6.663,6.663,0,0,0,24,11.115a6.5,6.5,0,0,1-1.642,1.669l.01.419a9.431,9.431,0,0,1-2.405,6.2,9,9,0,0,1-6.933,3Z" transform="translate(0 0)" fill="none"/>
    <g clip-path="url(#clip-path-2)">
      <g id="_Color:" data-name="↳ Color:" transform="translate(-4.8 -4.8)" clip-path="url(#clip-path-3)">
        <rect id="_Color:-2" data-name="↳ Color:" width="41.6" height="41.6" fill="#98c7bc"/>
      </g>
    </g>
  </g>
</svg>
